<svg width="390" height="155" viewBox="0 0 390 155" fill="none" xmlns="http://www.w3.org/2000/svg">
<g filter="url(#filter0_d_22_238)">
<path fill-rule="evenodd" clip-rule="evenodd" d="M-190 97.1982L-178.23 77.9382C-166.46 58.6782 -142.385 20.1582 -118.845 26.5782C-94.77 32.9982 -71.23 84.3582 -47.155 97.1982C-23.615 110.038 0.460014 84.3582 24 77.9382C47.54 71.5182 71.615 84.3582 95.155 84.3582C119.23 84.3582 142.77 71.5182 166.845 55.4682C190.385 39.4182 214.46 20.1582 238 23.3682C261.54 26.5782 285.615 52.2582 309.155 45.8382C333.23 39.4182 356.77 0.898193 380.845 0.898193C404.385 0.898193 428.46 39.4182 440.23 58.6782L452 77.9382V154.978H440.23C428.46 154.978 404.385 154.978 380.845 154.978C356.77 154.978 333.23 154.978 309.155 154.978C285.615 154.978 261.54 154.978 238 154.978C214.46 154.978 190.385 154.978 166.845 154.978C142.77 154.978 119.23 154.978 95.155 154.978C71.615 154.978 47.54 154.978 24 154.978C0.460014 154.978 -23.615 154.978 -47.155 154.978C-71.23 154.978 -94.77 154.978 -118.845 154.978C-142.385 154.978 -166.46 154.978 -178.23 154.978H-190V97.1982Z" fill="#4159C5"/>
<path fill-rule="evenodd" clip-rule="evenodd" d="M-190 97.1982L-178.23 77.9382C-166.46 58.6782 -142.385 20.1582 -118.845 26.5782C-94.77 32.9982 -71.23 84.3582 -47.155 97.1982C-23.615 110.038 0.460014 84.3582 24 77.9382C47.54 71.5182 71.615 84.3582 95.155 84.3582C119.23 84.3582 142.77 71.5182 166.845 55.4682C190.385 39.4182 214.46 20.1582 238 23.3682C261.54 26.5782 285.615 52.2582 309.155 45.8382C333.23 39.4182 356.77 0.898193 380.845 0.898193C404.385 0.898193 428.46 39.4182 440.23 58.6782L452 77.9382V154.978H440.23C428.46 154.978 404.385 154.978 380.845 154.978C356.77 154.978 333.23 154.978 309.155 154.978C285.615 154.978 261.54 154.978 238 154.978C214.46 154.978 190.385 154.978 166.845 154.978C142.77 154.978 119.23 154.978 95.155 154.978C71.615 154.978 47.54 154.978 24 154.978C0.460014 154.978 -23.615 154.978 -47.155 154.978C-71.23 154.978 -94.77 154.978 -118.845 154.978C-142.385 154.978 -166.46 154.978 -178.23 154.978H-190V97.1982Z" stroke="black"/>
</g>
<defs>
<filter id="filter0_d_22_238" x="-194" y="0.898193" width="650" height="162.08" filterUnits="userSpaceOnUse" color-interpolation-filters="sRGB">
<feFlood flood-opacity="0" result="BackgroundImageFix"/>
<feColorMatrix in="SourceAlpha" type="matrix" values="0 0 0 0 0 0 0 0 0 0 0 0 0 0 0 0 0 0 127 0" result="hardAlpha"/>
<feOffset dy="4"/>
<feGaussianBlur stdDeviation="2"/>
<feComposite in2="hardAlpha" operator="out"/>
<feColorMatrix type="matrix" values="0 0 0 0 0 0 0 0 0 0 0 0 0 0 0 0 0 0 0.25 0"/>
<feBlend mode="normal" in2="BackgroundImageFix" result="effect1_dropShadow_22_238"/>
<feBlend mode="normal" in="SourceGraphic" in2="effect1_dropShadow_22_238" result="shape"/>
</filter>
</defs>
</svg>
